<svg width="17" height="17" viewBox="0 0 17 17" fill="none" xmlns="http://www.w3.org/2000/svg">
<g clip-path="url(#clip0_27_344)">
<path d="M14.8551 3.67519L7.13396 11.1724L4.35045 8.30321L5.30458 7.37756L7.16244 9.2926L13.9294 2.72772L14.8551 3.67519ZM8.0395 13.453C5.09984 13.4085 2.74305 10.9792 2.7876 8.0395C2.83214 5.09984 5.26147 2.74304 8.20113 2.78759C9.24768 2.80345 10.2229 3.12493 11.0415 3.66407L12.0227 2.71216C10.9476 1.94245 9.64117 1.47593 8.22134 1.45441C4.54176 1.39865 1.51018 4.33972 1.45442 8.01929C1.39865 11.6989 4.33972 14.7305 8.0193 14.7862C9.1725 14.8037 10.2635 14.5269 11.2179 14.0213L10.2332 13.0062C9.56195 13.3028 8.81941 13.4649 8.0395 13.453ZM12.7561 10.1908L10.7564 10.1605L10.7362 11.4937L12.7359 11.524L12.7056 13.5237L14.0388 13.544L14.0691 11.5442L16.0689 11.5745L16.0891 10.2413L14.0893 10.211L14.1196 8.21123L12.7864 8.19103L12.7561 10.1908Z" fill="#49B26C"/>
</g>
<defs>
<clipPath id="clip0_27_344">
<rect width="16" height="16" fill="white" transform="translate(0.242446) rotate(0.868229)"/>
</clipPath>
</defs>
</svg>
