<svg width="33" height="33" viewBox="0 0 33 33" fill="none" xmlns="http://www.w3.org/2000/svg">
<g clip-path="url(#clip0_176_4612)">
<path d="M16.0499 9.58425C17.1544 9.57843 18.0451 8.67829 18.0393 7.57374C18.0335 6.46918 17.1333 5.57849 16.0288 5.58431C14.9242 5.59013 14.0335 6.49027 14.0394 7.59482C14.0452 8.69937 14.9453 9.59007 16.0499 9.58425Z" fill="black"/>
<path d="M16.0948 18.0841C17.1993 18.0783 18.09 17.1782 18.0842 16.0736C18.0784 14.9691 17.1783 14.0784 16.0737 14.0842C14.9691 14.09 14.0785 14.9901 14.0843 16.0947C14.0901 17.1993 14.9902 18.09 16.0948 18.0841Z" fill="black"/>
<path d="M16.1392 26.584C17.2438 26.5782 18.1345 25.678 18.1287 24.5735C18.1228 23.4689 17.2227 22.5782 16.1181 22.5841C15.0136 22.5899 14.1229 23.49 14.1287 24.5946C14.1345 25.6991 15.0347 26.5898 16.1392 26.584Z" fill="black"/>
</g>
<defs>
<clipPath id="clip0_176_4612">
<rect width="32" height="32" fill="white" transform="translate(0 0.168701) rotate(-0.301997)"/>
</clipPath>
</defs>
</svg>
